<?xml version="1.0" encoding="UTF-8"?>
<!DOCTYPE svg PUBLIC "-//W3C//DTD SVG 1.1//EN" "http://www.w3.org/Graphics/SVG/1.1/DTD/svg11.dtd">
<!-- Creator: CorelDRAW X8 -->
<svg xmlns="http://www.w3.org/2000/svg" xml:space="preserve" width="87.7005mm" height="32.4555mm" version="1.1" style="shape-rendering:geometricPrecision; text-rendering:geometricPrecision; image-rendering:optimizeQuality; fill-rule:evenodd; clip-rule:evenodd"
viewBox="0 0 2590 958"
 xmlns:xlink="http://www.w3.org/1999/xlink">
 <defs>
  <style type="text/css">
   <![CDATA[
    .str0 {stroke:white;stroke-width:16.17;stroke-dasharray:16.167011}
    .fil0 {fill:none}
    .fil1 {fill:#E6E6E6}
    .fil2 {fill:#E6E6E6;fill-rule:nonzero}
   ]]>
  </style>
 </defs>
 <g id="Layer_x0020_1">
  <metadata id="CorelCorpID_0Corel-Layer"/>
  <polygon class="fil0" points="0,0 2590,0 2590,958 0,958 "/>
  <g id="_291373888976">
   <line class="fil0 str0" x1="31" y1="314" x2="31" y2= "640" />
   <path class="fil1" d="M293 246l351 0c-3,70 -6,140 -9,210 -3,51 -17,88 -39,120 -22,31 -52,57 -84,86l0 0c-14,12 -28,25 -42,38l-5 5 -5 -5c-14,-13 -28,-26 -42,-38l0 0c-32,-29 -62,-55 -84,-86 -22,-32 -37,-69 -39,-120l-9 -210c0,0 7,0 7,0zm336 15l-328 0 8 194c3,48 16,83 37,113 22,30 50,55 81,83l0 0c12,11 25,22 38,34 13,-12 25,-23 37,-34l0 0c32,-28 60,-53 81,-83 21,-30 35,-65 37,-113 0,0 9,-194 9,-194z"/>
   <path class="fil1" d="M469 538l0 -108 141 0 -1 27c-2,32 -9,58 -20,81 0,0 -120,0 -120,0z"/>
   <polygon class="fil1" points="457,421 319,421 313,277 457,277 "/>
   <path class="fil1" d="M345 546l112 0 0 116c-10,-9 -19,-17 -28,-25 -34,-30 -64,-56 -84,-91z"/>
   <path class="fil1" d="M263 211l412 0c-3,82 -7,164 -11,245 -3,60 -20,104 -46,141 -25,37 -60,67 -98,100l0 0c-16,15 -33,29 -49,45l-6 5 -6 -5c-16,-16 -33,-30 -49,-45l0 0c-38,-33 -73,-63 -99,-100 -26,-37 -43,-81 -46,-141l-11 -245c0,0 9,0 9,0zm395 17l-386 0 10 228c3,56 19,97 44,132 25,35 58,64 95,97l0 0c14,12 29,25 44,39 15,-14 30,-27 44,-39l0 0c37,-33 70,-62 95,-97 24,-35 41,-76 43,-132 0,0 11,-228 11,-228z"/>
   <path class="fil2" d="M1000 461c25,0 40,-9 54,-23l-19 -19c-10,9 -19,15 -34,15 -23,0 -38,-18 -38,-41l0 0c0,-23 16,-41 38,-41 13,0 23,5 33,14l19 -21c-12,-12 -27,-20 -52,-20 -40,0 -69,31 -69,68l0 0c0,38 29,68 68,68zm77 -2l29 0 0 -53 53 0 0 53 29 0 0 -132 -29 0 0 52 -53 0 0 -52 -29 0 0 132zm143 0l100 0 0 -26 -72 0 0 -28 62 0 0 -25 -62 0 0 -27 71 0 0 -26 -99 0 0 132zm172 2c29,0 49,-15 49,-41l0 -1c0,-22 -15,-32 -42,-39 -23,-6 -29,-9 -29,-17l0 -1c0,-6 6,-11 17,-11 11,0 23,5 35,13l15 -22c-14,-11 -30,-17 -49,-17 -27,0 -46,16 -46,40l0 0c0,26 17,34 43,41 22,5 27,9 27,16l0 1c0,7 -7,12 -19,12 -15,0 -28,-6 -39,-16l-18 21c16,14 36,21 56,21zm119 0c28,0 48,-15 48,-41l0 -1c0,-22 -15,-32 -42,-39 -23,-6 -28,-9 -28,-17l0 -1c0,-6 6,-11 17,-11 11,0 22,5 34,13l15 -22c-13,-11 -30,-17 -49,-17 -27,0 -46,16 -46,40l0 0c0,26 17,34 44,41 22,5 26,9 26,16l0 1c0,7 -7,12 -19,12 -15,0 -27,-6 -39,-16l-17 21c16,14 36,21 56,21zm76 -2l15 0 0 -47 32 0c28,0 51,-14 51,-43l0 0c0,-26 -19,-42 -49,-42l-49 0 0 132zm15 -60l0 -58 33 0c21,0 35,10 35,28l0 1c0,17 -14,29 -36,29l-32 0zm86 60l15 0 16 -35 71 0 16 35 16 0 -60 -133 -14 0 -60 133zm37 -48l30 -67 30 67 -60 0zm123 48l89 0 0 -14 -74 0 0 -118 -15 0 0 132zm105 0l15 0 15 -35 72 0 15 35 16 0 -59 -133 -14 0 -60 133zm36 -48l30 -67 30 67 -60 0zm176 50c24,0 39,-9 52,-23l-9 -10c-13,12 -25,19 -43,19 -29,0 -51,-24 -51,-54l0 0c0,-31 22,-54 51,-54 18,0 30,7 41,18l11 -11c-14,-13 -28,-21 -52,-21 -38,0 -66,31 -66,68l0 0c0,38 28,68 66,68zm78 -2l96 0 0 -14 -81 0 0 -46 72 0 0 -13 -72 0 0 -45 80 0 0 -14 -95 0 0 132z"/>
   <path class="fil2" d="M937 623l56 0 0 -8 -47 0 0 -26 41 0 0 -8 -41 0 0 -26 46 0 0 -7 -55 0 0 75zm73 0l26 0c24,0 40,-16 40,-38l0 0c0,-21 -16,-37 -40,-37l-26 0 0 75zm8 -8l0 -59 18 0c19,0 31,13 31,29l0 1c0,16 -12,29 -31,29l-18 0zm106 9c19,0 32,-11 32,-33l0 -43 -9 0 0 44c0,16 -9,24 -23,24 -14,0 -23,-9 -23,-25l0 -43 -8 0 0 44c0,21 13,32 31,32zm86 0c14,0 23,-5 30,-13l-5 -5c-7,7 -14,11 -24,11 -17,0 -30,-14 -30,-32l0 0c0,-17 13,-31 30,-31 10,0 17,5 23,11l6 -7c-8,-7 -16,-12 -29,-12 -23,0 -39,18 -39,39l0 1c0,21 17,38 38,38zm39 -1l9 0 9 -20 41 0 8 20 10 0 -35 -76 -8 0 -34 76zm21 -27l17 -39 17 39 -34 0zm81 27l8 0 0 -67 26 0 0 -8 -60 0 0 8 26 0 0 67zm50 0l9 0 0 -75 -9 0 0 75zm66 1c23,0 39,-18 39,-39l0 0c0,-21 -16,-39 -39,-39 -23,0 -38,19 -38,39l0 1c0,20 15,38 38,38zm0 -7c-17,0 -29,-14 -29,-32l0 0c0,-17 12,-31 29,-31 17,0 30,14 30,31l0 1c0,17 -12,31 -30,31zm57 6l8 0 0 -62 49 62 6 0 0 -75 -8 0 0 60 -47 -60 -8 0 0 75zm78 0l9 0 9 -20 41 0 9 20 9 0 -34 -76 -8 0 -35 76zm21 -27l18 -39 17 39 -35 0zm71 27l51 0 0 -8 -43 0 0 -67 -8 0 0 75zm99 0l9 0 0 -27 18 0c16,0 29,-8 29,-24l0 0c0,-15 -11,-24 -28,-24l-28 0 0 75zm9 -34l0 -33 19 0c12,0 20,5 20,16l0 0c0,10 -8,17 -21,17l-18 0zm63 34l9 0 0 -29 21 0 22 29 10 0 -23 -31c12,-2 21,-9 21,-22l0 0c0,-6 -2,-11 -6,-15 -5,-5 -12,-7 -22,-7l-32 0 0 75zm9 -37l0 -30 23 0c12,0 19,5 19,14l0 1c0,9 -8,15 -19,15l-23 0zm104 38c23,0 39,-18 39,-39l0 0c0,-21 -16,-39 -39,-39 -23,0 -38,19 -38,39l0 1c0,20 15,38 38,38zm0 -7c-17,0 -30,-14 -30,-32l0 0c0,-17 13,-31 30,-31 17,0 30,14 30,31l0 1c0,17 -13,31 -30,31zm92 7c12,0 23,-5 30,-11l0 -30 -31 0 0 7 23 0 0 19c-5,4 -13,8 -22,8 -18,0 -30,-14 -30,-32l0 0c0,-17 12,-31 29,-31 10,0 17,4 23,9l5 -7c-7,-6 -15,-10 -28,-10 -23,0 -38,19 -38,39l0 1c0,21 15,38 39,38zm49 -1l9 0 0 -29 21 0 22 29 10 0 -23 -31c12,-2 21,-9 21,-22l0 0c0,-6 -2,-11 -6,-15 -5,-5 -12,-7 -22,-7l-32 0 0 75zm9 -37l0 -30 23 0c12,0 19,5 19,14l0 1c0,9 -8,15 -19,15l-23 0zm63 37l8 0 9 -20 41 0 9 20 9 0 -34 -76 -8 0 -34 76zm21 -27l17 -39 17 39 -34 0zm70 27l8 0 0 -61 28 40 0 0 28 -40 0 61 8 0 0 -75 -8 0 -28 41 -27 -41 -9 0 0 75z"/>
  </g>
 </g>
</svg>
