<?xml version="1.0" encoding="UTF-8"?>
<!DOCTYPE svg PUBLIC "-//W3C//DTD SVG 1.1//EN" "http://www.w3.org/Graphics/SVG/1.1/DTD/svg11.dtd">
<!-- Creator: CorelDRAW X8 -->
<svg xmlns="http://www.w3.org/2000/svg" xml:space="preserve" width="139.945mm" height="32.4555mm" version="1.1" style="shape-rendering:geometricPrecision; text-rendering:geometricPrecision; image-rendering:optimizeQuality; fill-rule:evenodd; clip-rule:evenodd"
viewBox="0 0 92776 21516"
 xmlns:xlink="http://www.w3.org/1999/xlink">
 <defs>
  <style type="text/css">
   <![CDATA[
    .str0 {stroke:white;stroke-width:363.029;stroke-dasharray:362.962808}
    .fil0 {fill:none}
    .fil1 {fill:#E6E6E6;fill-rule:nonzero}
   ]]>
  </style>
 </defs>
 <g id="Layer_x0020_1">
  <metadata id="CorelCorpID_0Corel-Layer"/>
  <polygon class="fil0" points="0,0 92776,0 92776,21516 0,21516 "/>
  <g id="_291373890992">
   <line class="fil0 str0" x1="92072" y1="7039" x2="92072" y2= "14377" />
   <line class="fil0 str0" x1="511" y1="7039" x2="511" y2= "14377" />
   <path class="fil1" d="M37292 10572c153,0 284,-49 380,-143 98,-98 158,-251 158,-453l0 -1155 -198 0 0 1157c0,274 -143,414 -337,414 -180,0 -289,-86 -395,-246l-141 121c109,177 274,305 533,305zm1689 3c432,0 720,-262 720,-765l0 -989 -194 0 0 1004c0,377 -203,570 -521,570 -330,0 -528,-210 -528,-582l0 -992 -194 0 0 1004c0,488 291,750 717,750zm1182 -27l599 0c542,0 917,-378 917,-863l0 -5c0,-486 -375,-859 -917,-859l-599 0 0 1727zm194 -180l0 -1366 405 0c436,0 715,300 715,683l0 5c0,382 -279,678 -715,678l-405 0zm1751 180l195 0 0 -1727 -195 0 0 1727zm1157 0l197 0 0 -1546 580 0 0 -181 -1357 0 0 181 580 0 0 1546zm1881 0l195 0 0 -609 419 0c368,0 678,-193 678,-565l0 -5c0,-340 -256,-548 -646,-548l-646 0 0 1727zm195 -787l0 -759 437 0c278,0 463,128 463,374l0 5c0,227 -187,380 -473,380l-427 0zm2254 816c525,0 883,-416 883,-892l0 -5c0,-476 -353,-888 -878,-888 -525,0 -883,417 -883,893l0 5c0,475 353,887 878,887zm5 -180c-395,0 -681,-320 -681,-712l0 -5c0,-392 281,-708 676,-708 395,0 681,321 681,713l0 5c0,392 -281,707 -676,707zm1290 151l1166 0 0 -180 -971 0 0 -1547 -195 0 0 1727zm2229 29c291,0 533,-120 693,-264l0 -688 -713 0 0 176 526 0 0 429c-119,96 -301,172 -499,172 -419,0 -683,-306 -683,-717l0 -5c0,-385 274,-708 656,-708 244,0 392,81 526,197l125 -148c-172,-145 -352,-229 -643,-229 -518,0 -866,419 -866,893l0 5c0,493 335,887 878,887zm984 -29l200 0 204 -457 940 0 202 457 210 0 -787 -1739 -182 0 -787 1739zm481 -632l394 -880 392 880 -786 0zm318 -1272l158 0 283 -229 -194 -89 -247 318zm1297 1904l195 0 0 -671 493 0 501 671 239 0 -530 -706c271,-49 468,-217 468,-503l0 -5c0,-135 -49,-256 -133,-340 -108,-108 -279,-173 -491,-173l-742 0 0 1727zm195 -846l0 -700 533 0c278,0 441,128 441,340l0 5c0,222 -185,355 -444,355l-530 0zm1499 -321c188,-42 274,-138 274,-338l0 -222 -227 0 0 259 89 0c10,107 -42,171 -165,215l29 86zm1285 1191c343,0 589,-192 589,-488l0 -5c0,-264 -177,-404 -562,-488 -380,-81 -468,-173 -468,-335l0 -5c0,-156 143,-279 367,-279 178,0 338,57 498,187l114 -150c-175,-141 -355,-212 -607,-212 -328,0 -567,200 -567,471l0 5c0,283 182,412 579,498 363,76 449,168 449,328l0 5c0,170 -153,293 -385,293 -239,0 -411,-81 -591,-244l-121 143c207,185 431,276 705,276zm1726 -24l1260 0 0 -178 -1065 0 0 -604 942 0 0 -178 -942 0 0 -589 1053 0 0 -178 -1248 0 0 1727zm1653 0l599 0c542,0 917,-378 917,-863l0 -5c0,-486 -375,-859 -917,-859l-599 0 0 1727zm194 -180l0 -1366 405 0c436,0 715,300 715,683l0 5c0,382 -279,678 -715,678l-405 0zm2424 207c432,0 721,-262 721,-765l0 -989 -195 0 0 1004c0,377 -203,570 -521,570 -330,0 -527,-210 -527,-582l0 -992 -195 0 0 1004c0,488 291,750 717,750zm1971 2c313,0 510,-120 690,-303l-128 -126c-165,158 -321,249 -557,249 -380,0 -669,-313 -669,-712l0 -5c0,-397 286,-708 669,-708 234,0 397,99 542,237l133 -143c-172,-163 -360,-274 -673,-274 -508,0 -873,404 -873,893l0 5c0,495 368,887 866,887zm883 -29l199 0 205 -457 940 0 202 457 209 0 -786 -1739 -183 0 -786 1739zm480 -632l395 -880 392 880 -787 0zm1850 632l197 0 0 -1546 580 0 0 -181 -1356 0 0 181 579 0 0 1546zm1159 0l195 0 0 -1727 -195 0 0 1727zm1502 29c525,0 883,-416 883,-892l0 -5c0,-476 -353,-888 -878,-888 -525,0 -883,417 -883,893l0 5c0,475 353,887 878,887zm5 -180c-395,0 -681,-320 -681,-712l0 -5c0,-392 281,-708 676,-708 394,0 681,321 681,713l0 5c0,392 -282,707 -676,707zm1290 151l189 0 0 -1416 1115 1416 155 0 0 -1727 -189 0 0 1384 -1088 -1384 -182 0 0 1727zm2687 0l195 0 0 -609 419 0c368,0 679,-193 679,-565l0 -5c0,-340 -257,-548 -647,-548l-646 0 0 1727zm195 -787l0 -759 437 0c278,0 463,128 463,374l0 5c0,227 -187,380 -473,380l-427 0zm1453 787l194 0 0 -671 494 0 500 671 240 0 -531 -706c272,-49 469,-217 469,-503l0 -5c0,-135 -49,-256 -133,-340 -109,-108 -279,-173 -491,-173l-742 0 0 1727zm194 -846l0 -700 533 0c279,0 442,128 442,340l0 5c0,222 -185,355 -444,355l-531 0zm2390 875c525,0 883,-416 883,-892l0 -5c0,-476 -353,-888 -878,-888 -525,0 -883,417 -883,893l0 5c0,475 353,887 878,887zm5 -180c-395,0 -681,-320 -681,-712l0 -5c0,-392 281,-708 676,-708 395,0 681,321 681,713l0 5c0,392 -281,707 -676,707zm2091 180c291,0 533,-120 693,-264l0 -688 -713 0 0 176 526 0 0 429c-119,96 -301,172 -498,172 -420,0 -683,-306 -683,-717l0 -5c0,-385 273,-708 655,-708 245,0 393,81 526,197l126 -148c-173,-145 -353,-229 -644,-229 -518,0 -866,419 -866,893l0 5c0,493 336,887 878,887zm1132 -29l195 0 0 -671 493 0 501 671 239 0 -530 -706c271,-49 468,-217 468,-503l0 -5c0,-135 -49,-256 -133,-340 -108,-108 -279,-173 -491,-173l-742 0 0 1727zm195 -846l0 -700 533 0c278,0 441,128 441,340l0 5c0,222 -185,355 -444,355l-530 0zm1440 846l200 0 204 -457 940 0 202 457 210 0 -787 -1739 -182 0 -787 1739zm481 -632l394 -880 393 880 -787 0zm1615 632l190 0 0 -1396 629 922 10 0 629 -924 0 1398 194 0 0 -1727 -197 0 -629 943 -629 -943 -197 0 0 1727z"/>
   <path class="fil1" d="M35902 13717l195 0 0 -609 419 0c367,0 678,-192 678,-565l0 -5c0,-340 -256,-547 -646,-547l-646 0 0 1726zm195 -787l0 -759 436 0c279,0 464,128 464,375l0 5c0,227 -188,379 -474,379l-426 0zm1452 787l1167 0 0 -180 -972 0 0 -1546 -195 0 0 1726zm1379 0l200 0 204 -456 940 0 202 456 210 0 -787 -1738 -183 0 -786 1738zm481 -631l394 -881 392 881 -786 0zm1884 631l197 0 0 -685 718 -1041 -227 0 -587 863 -582 -863 -237 0 718 1043 0 683zm2505 0l197 0 0 -685 718 -1041 -227 0 -587 863 -582 -863 -236 0 717 1043 0 683zm1879 30c526,0 883,-417 883,-893l0 -5c0,-476 -352,-888 -878,-888 -525,0 -883,417 -883,893l0 5c0,476 353,888 878,888zm5 -180c-394,0 -680,-321 -680,-713l0 -5c0,-392 281,-708 675,-708 395,0 681,321 681,713l0 5c0,392 -281,708 -676,708zm1980 177c432,0 721,-261 721,-764l0 -989 -195 0 0 1004c0,377 -203,569 -521,569 -330,0 -527,-209 -527,-582l0 -991 -195 0 0 1004c0,488 291,749 717,749zm1182 -27l194 0 0 -671 494 0 500 671 239 0 -530 -705c271,-49 469,-217 469,-503l0 -5c0,-136 -50,-257 -133,-340 -109,-109 -279,-173 -491,-173l-742 0 0 1726zm194 -846l0 -700 533 0c279,0 441,128 441,340l0 5c0,222 -184,355 -443,355l-531 0zm2812 858l162 0 476 -1400 474 1400 165 0 617 -1738 -205 0 -493 1438 -474 -1443 -160 0 -474 1443 -493 -1438 -212 0 617 1738zm1876 -12l200 0 205 -456 939 0 203 456 209 0 -787 -1738 -182 0 -787 1738zm481 -631l395 -881 392 881 -787 0zm1884 631l198 0 0 -685 717 -1041 -227 0 -587 863 -582 -863 -236 0 717 1043 0 683zm2422 0l197 0 0 -1546 580 0 0 -180 -1357 0 0 180 580 0 0 1546zm1825 30c525,0 883,-417 883,-893l0 -5c0,-476 -353,-888 -878,-888 -526,0 -883,417 -883,893l0 5c0,476 352,888 878,888zm5 -180c-395,0 -681,-321 -681,-713l0 -5c0,-392 281,-708 676,-708 394,0 680,321 680,713l0 5c0,392 -281,708 -675,708zm2818 180c313,0 511,-121 691,-304l-128 -125c-166,157 -321,249 -558,249 -380,0 -668,-313 -668,-713l0 -5c0,-397 286,-708 668,-708 234,0 397,99 543,237l133 -143c-173,-163 -360,-274 -673,-274 -508,0 -873,405 -873,893l0 5c0,496 367,888 865,888zm1031 -30l195 0 0 -671 493 0 501 671 239 0 -530 -705c271,-49 468,-217 468,-503l0 -5c0,-136 -49,-257 -133,-340 -108,-109 -279,-173 -491,-173l-742 0 0 1726zm195 -846l0 -700 533 0c278,0 441,128 441,340l0 5c0,222 -185,355 -444,355l-530 0zm1588 846l1260 0 0 -177 -1065 0 0 -605 942 0 0 -177 -942 0 0 -589 1053 0 0 -178 -1248 0 0 1726zm1504 0l200 0 205 -456 939 0 203 456 209 0 -787 -1738 -182 0 -787 1738zm481 -631l395 -881 392 881 -787 0zm1850 631l197 0 0 -1546 580 0 0 -180 -1357 0 0 180 580 0 0 1546zm1159 0l195 0 0 -1726 -195 0 0 1726zm1294 12l173 0 742 -1738 -209 0 -617 1487 -614 -1487 -217 0 742 1738zm1256 -12l1260 0 0 -177 -1066 0 0 -605 943 0 0 -177 -943 0 0 -589 1053 0 0 -178 -1247 0 0 1726zm2848 0l197 0 0 -1546 580 0 0 -180 -1357 0 0 180 580 0 0 1546zm1142 0l194 0 0 -777 997 0 0 777 195 0 0 -1726 -195 0 0 767 -997 0 0 -767 -194 0 0 1726zm1891 0l195 0 0 -1726 -195 0 0 1726zm700 0l190 0 0 -1415 1115 1415 155 0 0 -1726 -190 0 0 1383 -1087 -1383 -183 0 0 1726zm1949 0l194 0 0 -463 368 -373 663 836 244 0 -771 -971 739 -755 -251 0 -992 1031 0 -1031 -194 0 0 1726zm1790 0l195 0 0 -1726 -195 0 0 1726zm700 0l190 0 0 -1415 1115 1415 155 0 0 -1726 -190 0 0 1383 -1087 -1383 -183 0 0 1726zm2750 30c291,0 533,-121 693,-264l0 -688 -713 0 0 175 525 0 0 429c-118,96 -300,173 -498,173 -419,0 -683,-306 -683,-718l0 -5c0,-385 274,-708 656,-708 244,0 392,82 525,198l126 -148c-172,-146 -352,-230 -643,-230 -518,0 -866,420 -866,893l0 5c0,493 335,888 878,888z"/>
  </g>
 </g>
</svg>
