<?xml version="1.0" encoding="UTF-8"?>
<!DOCTYPE svg PUBLIC "-//W3C//DTD SVG 1.1//EN" "http://www.w3.org/Graphics/SVG/1.1/DTD/svg11.dtd">
<!-- Creator: CorelDRAW X8 -->
<svg xmlns="http://www.w3.org/2000/svg" xml:space="preserve" width="69.3543mm" height="32.4555mm" version="1.1" style="shape-rendering:geometricPrecision; text-rendering:geometricPrecision; image-rendering:optimizeQuality; fill-rule:evenodd; clip-rule:evenodd"
viewBox="0 0 4022 1882"
 xmlns:xlink="http://www.w3.org/1999/xlink">
 <defs>
  <style type="text/css">
   <![CDATA[
    .str0 {stroke:white;stroke-width:31.7548;stroke-dasharray:31.748994}
    .fil0 {fill:none}
    .fil1 {fill:#E6E6E6}
    .fil2 {fill:#E6E6E6;fill-rule:nonzero}
   ]]>
  </style>
 </defs>
 <g id="Layer_x0020_1">
  <metadata id="CorelCorpID_0Corel-Layer"/>
  <polygon class="fil0" points="0,0 4022,0 4022,1882 0,1882 "/>
  <g id="_291373889552">
   <line class="fil0 str0" x1="49" y1="616" x2="49" y2= "1258" />
   <path class="fil1" d="M638 870l-83 -23c22,-81 73,-151 142,-197 0,0 -59,220 -59,220z"/>
   <path class="fil1" d="M955 687l-220 -59c46,-23 98,-36 153,-36l0 0c31,0 61,4 90,12 0,0 -23,83 -23,83z"/>
   <path class="fil1" d="M1138 1004l-250 -67 67 -250 220 59c9,12 16,24 22,38 0,0 -59,220 -59,220z"/>
   <path class="fil1" d="M821 1187l-220 -59c-8,-12 -15,-25 -22,-38l59 -220 250 67c0,0 -67,250 -67,250z"/>
   <path class="fil1" d="M799 1270l22 -83 220 59c-46,23 -98,36 -153,36 -31,0 -61,-4 -89,-12z"/>
   <path class="fil1" d="M1079 1224l59 -220 84 22c-22,82 -74,152 -143,198z"/>
   <g>
    <path class="fil2" d="M1541 1153l0 -139 27 0 33 98c3,9 5,16 7,21 1,-5 4,-13 7,-22l33 -97 25 0 0 139 -18 0 0 -116 -40 116 -17 0 -40 -118 0 118 -17 0zm162 0l0 -139 100 0 0 16 -82 0 0 43 77 0 0 16 -77 0 0 47 85 0 0 17 -103 0zm164 0l0 -123 -46 0 0 -16 110 0 0 16 -46 0 0 123 -18 0zm84 0l0 -139 18 0 0 57 72 0 0 -57 18 0 0 139 -18 0 0 -66 -72 0 0 66 -18 0zm133 -68c0,-23 6,-41 19,-54 12,-13 28,-19 48,-19 12,0 24,3 34,9 11,6 18,15 24,25 5,11 8,24 8,38 0,14 -3,26 -9,37 -5,11 -13,20 -24,26 -10,5 -21,8 -33,8 -14,0 -25,-3 -35,-9 -11,-7 -19,-15 -24,-26 -5,-11 -8,-23 -8,-35zm19 1c0,16 5,29 14,39 9,10 20,14 33,14 14,0 26,-4 35,-14 8,-10 13,-24 13,-41 0,-12 -2,-22 -6,-30 -4,-8 -9,-15 -17,-19 -7,-5 -15,-7 -24,-7 -13,0 -24,4 -34,13 -9,9 -14,24 -14,45zm137 67l0 -139 48 0c11,0 19,1 25,2 8,2 15,5 20,10 8,6 13,14 17,24 3,9 5,20 5,33 0,10 -1,20 -4,28 -2,8 -5,15 -9,20 -4,5 -8,9 -13,12 -4,3 -10,6 -16,7 -7,2 -14,3 -22,3l-51 0zm19 -17l29 0c10,0 17,0 22,-2 5,-2 9,-4 12,-7 5,-5 8,-11 11,-18 2,-7 3,-16 3,-27 0,-14 -2,-25 -7,-33 -5,-8 -10,-13 -17,-16 -5,-2 -13,-3 -24,-3l-29 0 0 106z"/>
    <path class="fil2" d="M1579 908c22,0 39,-6 52,-19 12,-12 18,-29 18,-53l0 -119 -52 0 0 119c0,18 -8,26 -21,26 -12,0 -20,-6 -30,-17l-33 32c13,18 33,31 66,31zm186 1c54,0 88,-27 88,-88l0 -104 -53 0 0 106c0,26 -13,39 -34,39 -21,0 -35,-13 -35,-41l0 -104 -53 0 0 106c0,59 34,86 87,86zm119 -4l72 0c68,0 108,-40 108,-95l0 0c0,-55 -39,-93 -107,-93l-73 0 0 188zm53 -46l0 -96 21 0c31,0 52,18 52,48l0 0c0,31 -21,48 -52,48l-21 0zm155 46l52 0 0 -188 -52 0 0 188zm133 0l52 0 0 -143 56 0 0 -45 -165 0 0 45 57 0 0 143zm206 0l52 0 0 -54 26 0c47,0 81,-23 81,-67l0 -1c0,-42 -31,-66 -78,-66l-81 0 0 188zm52 -95l0 -49 25 0c19,0 30,8 30,24l0 1c0,15 -11,24 -30,24l-25 0zm224 99c58,0 102,-44 102,-98l0 -1c0,-54 -43,-97 -101,-97 -59,0 -102,44 -102,98l0 1c0,54 43,97 101,97zm1 -47c-29,0 -49,-24 -49,-51l0 -1c0,-27 19,-50 48,-50 29,0 49,24 49,51l0 1c0,27 -20,50 -48,50zm128 43l144 0 0 -46 -92 0 0 -142 -52 0 0 188zm251 4c35,0 62,-13 82,-29l0 -85 -86 0 0 38 37 0 0 23c-8,5 -18,8 -30,8 -30,0 -52,-22 -52,-52l0 -1c0,-29 21,-51 49,-51 18,0 32,6 45,17l31 -37c-20,-17 -44,-27 -77,-27 -58,0 -101,43 -101,98l0 1c0,57 44,97 102,97zm96 -4l55 0 14 -33 72 0 14 33 56 0 -80 -190 -50 0 -81 190zm84 -74l21 -54 21 54 -42 0zm145 74l53 0 0 -57 23 0 38 57 60 0 -45 -65c23,-10 39,-30 39,-58l0 -1c0,-19 -6,-33 -17,-44 -13,-13 -33,-20 -61,-20l-90 0 0 188zm53 -98l0 -45 34 0c17,0 28,7 28,22l0 1c0,14 -10,22 -28,22l-34 0z"/>
   </g>
  </g>
 </g>
</svg>
